<?xml version="1.0" encoding="UTF-8"?>
<svg version="1.1" xmlns="http://www.w3.org/2000/svg" width="1280" height="1280">
<path d="M0 0 C4.12237823 1.53523051 6.2485275 4.47731983 8.8125 7.875 C9.28695557 8.49375 9.76141113 9.1125 10.25024414 9.75 C11.29122074 11.11149528 12.32840769 12.47589425 13.36230469 13.84277344 C15.01050512 16.01383769 16.67954581 18.16755496 18.3515625 20.3203125 C41.81119375 50.77850078 62.30118044 83.90236268 80 118 C80.89283691 119.71195557 80.89283691 119.71195557 81.80371094 121.45849609 C91.56512519 140.23434447 100.1634281 159.34713706 108 179 C108.47920898 180.19415527 108.95841797 181.38831055 109.45214844 182.61865234 C133.57379733 243.12253979 148.02103622 307.19635772 154 372 C154.10441406 373.08571289 154.20882812 374.17142578 154.31640625 375.29003906 C158.10160406 416.29235579 157.10429436 458.0685861 153 499 C152.92974609 499.71857178 152.85949219 500.43714355 152.78710938 501.17749023 C148.44494426 545.49699562 139.44438376 589.54199929 126 632 C125.41677979 633.84609863 125.41677979 633.84609863 124.82177734 635.72949219 C114.19463097 669.17330736 101.19606571 701.60285843 85.11474609 732.828125 C83.84251073 735.30683849 82.58829511 737.79440551 81.33203125 740.28125 C71.4873957 759.61461112 60.34786871 778.16105009 48 796 C47.52852539 796.68255859 47.05705078 797.36511719 46.57128906 798.06835938 C39.97386983 807.58890321 33.16893817 816.90143282 26 826 C25.33613281 826.84691406 24.67226563 827.69382812 23.98828125 828.56640625 C18.97417786 834.902687 13.77314948 841.07840991 8.52246094 847.21875 C7.47977202 848.43867597 6.43884124 849.66010621 5.39941406 850.8828125 C-0.76406223 858.12792205 -6.9859725 865.15465865 -13.796875 871.80078125 C-15.84034729 873.84063037 -17.74456205 875.93539094 -19.625 878.125 C-24.9834206 884.36185021 -30.84515424 889.94179424 -37.078125 895.29296875 C-38.9099602 896.92002562 -40.61128111 898.61302329 -42.3125 900.375 C-46.03268584 904.16297965 -50.12129566 907.42875282 -54.25390625 910.75390625 C-56.6743574 912.73364937 -59.00119141 914.77028882 -61.3125 916.875 C-67.2926736 922.23289804 -73.62137179 927.1311699 -80 932 C-80.69883301 932.53399414 -81.39766602 933.06798828 -82.11767578 933.61816406 C-99.60458906 946.9071308 -117.95885887 959.0493225 -137 970 C-137.64582031 970.37366699 -138.29164063 970.74733398 -138.95703125 971.13232422 C-195.36776766 1003.61164162 -257.88241871 1024.69218104 -322.3125 1033.75 C-323.3767923 1033.90157562 -323.3767923 1033.90157562 -324.46258545 1034.05621338 C-348.60707672 1037.45533474 -372.64972528 1038.40973493 -397 1038.375 C-397.74536011 1038.37476082 -398.49072021 1038.37452164 -399.25866699 1038.37427521 C-423.70282562 1038.36437541 -447.7826443 1037.56602815 -472 1034 C-472.75790833 1033.89109436 -473.51581665 1033.78218872 -474.29669189 1033.66998291 C-521.57635127 1026.86979746 -567.45263602 1014.70008829 -611.71835327 996.67871094 C-668.60372021 973.52435413 -728.82203783 971.2319042 -786.09765625 995.09765625 C-806.12445897 1003.68741482 -824.38330827 1015.01741214 -840.73925781 1029.42163086 C-843.3584206 1031.71276666 -845.77871238 1033.64366837 -849 1035 C-848.38902344 1031.05259905 -847.16260163 1027.9907986 -845.33203125 1024.44921875 C-844.77555908 1023.37019287 -844.21908691 1022.29116699 -843.64575195 1021.17944336 C-843.04077881 1020.02710205 -842.43580566 1018.87476074 -841.8125 1017.6875 C-841.50243011 1017.09341339 -841.19236023 1016.49932678 -840.87289429 1015.88723755 C-834.32336488 1003.35060834 -827.27229048 991.13084668 -820 979 C-819.53029785 978.20867676 -819.0605957 977.41735352 -818.57666016 976.60205078 C-807.63508677 958.17182666 -795.71986922 940.25154267 -783 923 C-782.54737793 922.38286133 -782.09475586 921.76572266 -781.62841797 921.12988281 C-774.51008503 911.44471606 -767.08794943 902.04487166 -759.44726562 892.76757812 C-758.1759353 891.21487375 -756.92242841 889.64761149 -755.671875 888.078125 C-749.73365806 880.64435713 -743.26928586 873.76372255 -736.74023438 866.85351562 C-734.60650004 864.58088501 -732.50368439 862.28127602 -730.40258789 859.97851562 C-722.08058289 850.8702122 -713.56179498 841.85308606 -704.14453125 833.86328125 C-701.83828049 831.85948961 -699.60793162 829.78761633 -697.37597656 827.7019043 C-692.09703531 822.7717884 -686.73897439 818.02677558 -681.10546875 813.5 C-676.31141191 809.64063348 -671.57881956 805.70684315 -666.83691406 801.78369141 C-666.13920898 801.20796387 -665.44150391 800.63223633 -664.72265625 800.0390625 C-663.79078491 799.26876709 -663.79078491 799.26876709 -662.84008789 798.48291016 C-661.92924438 797.74886963 -661.92924438 797.74886963 -661 797 C-660.31164062 796.43144287 -659.62328125 795.86288574 -658.9140625 795.27709961 C-658.28242187 794.85565674 -657.65078125 794.43421387 -657 794 C-652.57466402 794.99404385 -649.14522864 797.89778564 -645.5625 800.5625 C-638.54594195 805.66746908 -631.3737623 810.42850171 -624 815 C-623.38382813 815.38623535 -622.76765625 815.7724707 -622.1328125 816.17041016 C-554.88125847 858.08253937 -472.29926374 874.05012397 -394 875 C-394 874.67 -394 874.34 -394 874 C-394.71615479 873.88519287 -395.43230957 873.77038574 -396.17016602 873.65209961 C-450.31487415 864.87732188 -503.14563622 850.47796453 -552.01171875 825.03320312 C-554.18963716 823.90145574 -556.37603271 822.78700982 -558.5625 821.671875 C-580.03066777 810.64163307 -600.32711123 797.62418767 -619.45703125 782.90234375 C-622.24122881 780.81954158 -625.09244268 778.90582954 -628 777 C-627.71062451 773.84366361 -627.49303694 772.41606082 -625.0234375 770.33203125 C-623.71246094 769.57986328 -623.71246094 769.57986328 -622.375 768.8125 C-617.8906233 766.13680276 -613.5095583 763.36650304 -609.1875 760.4375 C-600.14300263 754.3657768 -590.93515616 748.5516629 -581.72949219 742.72851562 C-579.17356851 741.10991637 -576.62134378 739.48567036 -574.0703125 737.859375 C-563.72203185 731.27381388 -553.26033207 724.90101946 -542.72216797 718.62451172 C-539.85423911 716.91301409 -536.99102328 715.19385422 -534.12890625 713.47265625 C-525.40947887 708.22919805 -516.68593159 702.99306331 -507.93359375 697.8046875 C-507.05391434 697.28315346 -507.05391434 697.28315346 -506.15646362 696.75108337 C-503.25017258 695.02906223 -500.34167329 693.31096931 -497.43066406 691.59692383 C-492.64109305 688.7734682 -487.86588074 685.94346641 -483.17578125 682.95703125 C-482.48564941 682.52245605 -481.79551758 682.08788086 -481.08447266 681.64013672 C-479.35379693 680.5429284 -477.63519251 679.42673825 -475.91796875 678.30859375 C-472.31197323 676.69144716 -470.80520694 677.10768176 -467 678 C-464.28466797 679.13232422 -464.28466797 679.13232422 -461.4921875 680.5546875 C-460.43854004 681.0813501 -459.38489258 681.6080127 -458.29931641 682.15063477 C-457.16929199 682.71967529 -456.03926758 683.28871582 -454.875 683.875 C-402.5521684 709.66758126 -344.81764915 724.46992784 -287 731 C-286.18059937 731.09423752 -285.36119873 731.18847504 -284.51696777 731.28556824 C-268.70021926 733.05838053 -253.02694754 733.2402315 -237.125 733.125 C-234.67187871 733.11493558 -232.21875336 733.10581594 -229.765625 733.09765625 C-223.84365904 733.0759506 -217.92184953 733.04275529 -212 733 C-213.2060791 732.87471924 -214.4121582 732.74943848 -215.65478516 732.62036133 C-297.64951565 724.04870467 -376.35570389 705.2756539 -450 667 C-450 666.01 -450 665.02 -450 664 C-448.47290039 662.64941406 -448.47290039 662.64941406 -446.28515625 661.265625 C-445.46031738 660.74291016 -444.63547852 660.22019531 -443.78564453 659.68164062 C-438.71623573 656.62133494 -433.58586208 653.67504325 -428.4375 650.75 C-419.17967627 645.45670734 -410.0464737 640.018781 -401.04931641 634.29394531 C-397.89392448 632.30162017 -394.71471814 630.34829289 -391.53759766 628.39086914 C-370.60988174 615.4938236 -349.95445138 602.22577796 -329.6875 588.3125 C-329.03209229 587.86592041 -328.37668457 587.41934082 -327.70141602 586.95922852 C-324.55052632 584.80256504 -321.45598641 582.60623434 -318.4296875 580.27734375 C-317.86032471 579.85090576 -317.29096191 579.42446777 -316.7043457 578.98510742 C-315.1763387 577.83563717 -313.66739079 576.66095109 -312.16015625 575.484375 C-308.925598 573.96505221 -308.19930137 573.86490446 -304.85742188 574.31420898 C-304.05990005 574.41955963 -303.26237823 574.52491028 -302.44068909 574.63345337 C-298.65772126 575.20158559 -294.88831486 575.82398371 -291.12109375 576.48828125 C-272.62909287 579.66768847 -254.18033981 582.55335927 -235.5 584.375 C-234.69980438 584.454086 -233.89960876 584.533172 -233.07516479 584.61465454 C-211.63463759 586.70483937 -190.28871916 587.23576511 -168.75 587.25 C-168.08247963 587.25088371 -167.41495926 587.25176743 -166.727211 587.25267792 C-143.7019672 587.27964854 -120.90473881 586.40918943 -98 584 C-96.33888727 583.82890647 -94.67775359 583.65801628 -93.01660156 583.48730469 C-85.6677304 582.72631524 -78.32879441 581.93702906 -71 581 C-72.77600586 581.01571045 -72.77600586 581.01571045 -74.58789062 581.03173828 C-122.09517453 581.41224279 -169.21380287 579.95923471 -216 571 C-216.93102539 570.82388184 -217.86205078 570.64776367 -218.82128906 570.46630859 C-230.29872679 568.25243663 -241.50649826 565.41050175 -252.6875 562 C-253.7379248 561.67999023 -254.78834961 561.35998047 -255.87060547 561.03027344 C-263.09839442 558.75819133 -270.05337061 556.02034092 -277 553 C-277 552.01 -277 551.02 -277 550 C-274.8671875 547.90625 -274.8671875 547.90625 -271.875 545.5 C-271.3402002 545.0656665 -270.80540039 544.63133301 -270.25439453 544.18383789 C-265.58035599 540.40616258 -260.82382313 536.73125196 -256.08032227 533.04150391 C-251.68918521 529.60274218 -247.5365867 525.96319809 -243.43359375 522.18359375 C-240.81832727 519.83699028 -238.1152571 517.63647175 -235.375 515.4375 C-231.28500863 512.12984172 -227.5471776 508.66245683 -223.88671875 504.890625 C-222.03515002 503.03522279 -220.11746327 501.32714427 -218.125 499.625 C-213.97580527 496.06388011 -210.17759998 492.19566377 -206.33984375 488.3046875 C-204.43144908 486.42496654 -202.51573166 484.68451391 -200.4375 483 C-197.94690328 481.23362558 -197.94690328 481.23362558 -197 479 C-196.34 479 -195.68 479 -195 479 C-194.79761719 478.46890625 -194.59523438 477.9378125 -194.38671875 477.390625 C-192.39536808 473.95764864 -189.65500739 471.49155704 -186.8125 468.75 C-181.97732012 463.9975963 -177.38681316 459.1714464 -173 454 C-172.02759024 452.88926737 -171.05345869 451.78004102 -170.078125 450.671875 C-162.75453798 442.33303971 -155.70734127 433.84239761 -149 425 C-148.4519873 424.27796387 -147.90397461 423.55592773 -147.33935547 422.81201172 C-139.05561258 411.8463984 -131.24066693 400.68067403 -124 389 C-123.53416504 388.25234375 -123.06833008 387.5046875 -122.58837891 386.734375 C-91.50936572 339.35505097 -91.50936572 339.35505097 -76 286 C-76.85658203 287.58361328 -76.85658203 287.58361328 -77.73046875 289.19921875 C-103.09969077 335.70591049 -136.07359455 376.09839716 -173.375 413.5 C-173.93907562 414.06675446 -174.50315125 414.63350891 -175.08432007 415.21743774 C-181.21031372 421.36548939 -187.39340079 427.3642769 -194 433 C-195.77570221 434.61967817 -197.54708307 436.24411718 -199.3125 437.875 C-204.71458194 442.79607464 -210.3108916 447.41690632 -216 452 C-217.26506799 453.03294233 -218.5293428 454.06685658 -219.79296875 455.1015625 C-231.08642372 464.34017157 -242.58953964 473.25027647 -254.3125 481.9375 C-255.39494995 482.74272095 -255.39494995 482.74272095 -256.49926758 483.56420898 C-269.83974425 493.39901029 -283.70082332 502.51517835 -297.5 511.6875 C-299.01700066 512.69715508 -300.53392803 513.70692029 -302.05078125 514.71679688 C-305.69968266 517.14579342 -309.34955336 519.57332642 -313 522 C-316.08052774 519.74223189 -316.576807 517.29179842 -317.2033844 513.63304138 C-317.31286911 512.91753616 -317.42235382 512.20203094 -317.53515625 511.46484375 C-317.72143837 510.33665977 -317.72143837 510.33665977 -317.91148376 509.1856842 C-318.17334945 507.58524491 -318.42934523 505.98383585 -318.67993164 504.3815918 C-319.05329668 501.99629667 -319.44375651 499.61436281 -319.83789062 497.23242188 C-327.33567261 451.22830183 -325.44080702 406.13237379 -320 360 C-334.83244653 409.07330714 -349.238945 476.56977771 -335.234375 527.80078125 C-334.58483702 531.16894996 -334.62903869 532.81414706 -336 536 C-340.77203853 540.20091301 -346.80056405 542.85209865 -352.43994141 545.68554688 C-356.10279722 547.56622737 -359.60404795 549.68169449 -363.125 551.8125 C-381.16275866 562.49167791 -399.60805698 572.4734468 -418.06005859 582.41308594 C-420.92487933 583.95945156 -423.78545913 585.51334777 -426.64453125 587.0703125 C-444.01922123 596.52604754 -461.50567296 605.76809524 -479 615 C-481.73225699 612.66022714 -482.58182274 610.79867339 -483.4296875 607.328125 C-483.66518311 606.370271 -483.90067871 605.41241699 -484.14331055 604.42553711 C-484.50549683 602.85364624 -484.50549683 602.85364624 -484.875 601.25 C-485.1325708 600.14599854 -485.3901416 599.04199707 -485.65551758 597.90454102 C-490.01250911 578.63647975 -492.88578217 559.15287705 -494.75 539.5 C-494.86561279 538.28691162 -494.98122559 537.07382324 -495.1003418 535.82397461 C-496.89341994 515.37035805 -497.16987891 494.89515699 -497.125 474.375 C-497.12411377 473.20064392 -497.12322754 472.02628784 -497.12231445 470.81634521 C-497.10671867 453.19340977 -496.89513149 435.60266547 -496 418 C-503.36466528 447.05357642 -509.76889449 476.15882387 -513 506 C-513.09764648 506.87672363 -513.19529297 507.75344727 -513.29589844 508.65673828 C-517.3982091 546.27506517 -517.29505601 584.99644766 -513.40234375 622.62109375 C-513.05176211 626.09503912 -512.91475351 629.50489403 -513 633 C-516.12423373 634.70973715 -519.24948073 636.41761411 -522.375 638.125 C-523.85057373 638.93155029 -523.85057373 638.93155029 -525.35595703 639.75439453 C-530.69361901 642.66729273 -536.04004436 645.5618643 -541.40625 648.421875 C-554.19206261 655.2414917 -566.8024972 662.28467652 -579.28515625 669.64453125 C-583.73887028 672.26977609 -588.22024418 674.83985258 -592.72119141 677.38305664 C-602.05645931 682.65994345 -611.27067393 688.12460751 -620.4375 693.6875 C-621.0416272 694.05362396 -621.64575439 694.41974792 -622.26818848 694.79696655 C-627.81352913 698.16142583 -633.3512398 701.530057 -638.75390625 705.12109375 C-639.73435913 705.77235229 -639.73435913 705.77235229 -640.73461914 706.43676758 C-642.34302369 707.51934329 -643.93792545 708.62191223 -645.53125 709.7265625 C-648.39713753 711.20485259 -649.05432394 710.92500462 -652 710 C-658.98425547 678.55457428 -663.35790971 647.09264563 -666 615 C-666.08373871 614.14393158 -666.16747742 613.28786316 -666.25375366 612.40585327 C-667.00074139 604.41156252 -667.14548988 596.48685212 -667.1328125 588.4609375 C-667.13348913 587.08631371 -667.13446211 585.71169004 -667.13571167 584.33706665 C-667.13717478 581.47128142 -667.1350812 578.60552763 -667.13037109 575.73974609 C-667.12470646 572.12267414 -667.12802583 568.50567635 -667.13382339 564.88860703 C-667.15362429 550.23628607 -667.11939473 535.61842823 -666 521 C-670.49806054 539.89868099 -674.6075619 558.69989174 -677 578 C-677.14953125 579.14887695 -677.2990625 580.29775391 -677.453125 581.48144531 C-679.98209186 601.68592841 -680.28905157 621.84076238 -680.3125 642.1875 C-680.31608521 643.44255341 -680.31967041 644.69760681 -680.32336426 645.99069214 C-680.34811793 662.09966985 -679.74591386 677.98347802 -678 694 C-677.92623138 694.6890744 -677.85246277 695.3781488 -677.77645874 696.08810425 C-677.36830101 699.85551346 -676.91497699 703.61581611 -676.4375 707.375 C-676.06855691 710.34924888 -675.69973823 713.32310491 -675.35107422 716.29980469 C-675.12117032 718.06805025 -674.84309674 719.8308491 -674.51220703 721.58300781 C-674.1282514 723.79991065 -673.84072502 725.75586024 -674 728 C-675.96875 730.234375 -675.96875 730.234375 -679 732 C-680.16285263 732.80829125 -681.31864336 733.62679838 -682.46875 734.453125 C-683.81245505 735.38548145 -685.15620799 736.31776889 -686.5 737.25 C-701.9204006 748.05258098 -716.76779012 759.6194416 -731.29101562 771.59521484 C-732.87988323 772.90126401 -734.47862053 774.19528081 -736.078125 775.48828125 C-741.33139762 779.73638858 -746.43135317 784.10537015 -751.41796875 788.6640625 C-753.5193249 790.56513811 -755.64184638 792.43140075 -757.78125 794.2890625 C-762.04877858 798.01535572 -766.19294527 801.86139072 -770.3125 805.75 C-771.04654053 806.44158203 -771.78058105 807.13316406 -772.53686523 807.84570312 C-778.46980421 813.4556417 -784.28218883 819.17104347 -790 825 C-793.6339015 822.69364634 -795.00802107 820.48240257 -796.734375 816.57421875 C-797.22212402 815.47883789 -797.70987305 814.38345703 -798.21240234 813.25488281 C-798.71980957 812.07764648 -799.2272168 810.90041016 -799.75 809.6875 C-800.01323059 809.08353394 -800.27646118 808.47956787 -800.54766846 807.8572998 C-835.87209865 726.79106147 -833.20388566 640.47528621 -801.65478516 558.50488281 C-786.8357154 521.25680628 -766.88243767 485.49420102 -742 454 C-741.06220703 452.7934375 -741.06220703 452.7934375 -740.10546875 451.5625 C-738.10111702 449.01521796 -736.05594381 446.50579771 -734 444 C-733.25621094 443.06929687 -732.51242187 442.13859375 -731.74609375 441.1796875 C-724.67177679 432.5121423 -716.8237183 424.60735238 -708.9375 416.6875 C-708.3831427 416.12796631 -707.8287854 415.56843262 -707.25762939 414.99194336 C-700.16031977 407.8425035 -692.89287468 401.27177647 -685 395 C-683.90995999 394.0768719 -682.82534993 393.14723082 -681.75 392.20703125 C-620.35026716 338.7439116 -541.7899338 305.74578445 -465.90234375 278.74609375 C-464.9578323 278.40976551 -464.01332085 278.07343727 -463.04018784 277.72691727 C-436.70631972 268.36851748 -410.15894075 259.64548346 -383.625 250.875 C-324.25772108 231.32926001 -324.25772108 231.32926001 -265.75 209.375 C-264.86451477 209.02281403 -263.97902954 208.67062805 -263.06671143 208.30776978 C-247.86276421 202.25655083 -232.83600689 195.91127304 -218 189 C-216.99018066 188.53352051 -215.98036133 188.06704102 -214.93994141 187.58642578 C-202.18319838 181.67269044 -189.66459273 175.34589901 -177.25 168.75 C-176.62983002 168.42165161 -176.00966003 168.09330322 -175.37069702 167.75500488 C-166.70791807 163.15728028 -158.30488692 158.22112102 -150 153 C-149.06881348 152.42282227 -148.13762695 151.84564453 -147.17822266 151.25097656 C-135.63505486 144.0931679 -124.46463657 136.6702808 -113.73583984 128.33886719 C-111.08134672 126.29143536 -108.38215868 124.30675444 -105.6875 122.3125 C-99.98891446 118.03090146 -94.46155107 113.57924442 -89 109 C-88.49259277 108.58427734 -87.98518555 108.16855469 -87.46240234 107.74023438 C-78.18454614 100.12850185 -69.62240137 91.83467394 -61.125 83.375 C-60.59106628 82.84624268 -60.05713257 82.31748535 -59.50701904 81.77270508 C-52.5316464 74.85069829 -46.10718125 67.71506585 -40 60 C-38.99977457 58.79121562 -37.9963512 57.58506271 -36.98828125 56.3828125 C-24.33009854 41.06608721 -13.80528074 24.2488397 -4 7 C-3.2423992 5.67435816 -2.48459534 4.34883234 -1.7265625 3.0234375 C-1.15679688 2.02570313 -0.58703125 1.02796875 0 0 Z " fill="#36AE44" transform="translate(987,121)"/>
<path d="M0 0 C0 0.99 0 1.98 0 3 C-2.64 3 -5.28 3 -8 3 C-8.33 3.66 -8.66 4.32 -9 5 C-11.50390625 5.4140625 -11.50390625 5.4140625 -14.5625 5.625 C-15.57441406 5.69976563 -16.58632813 5.77453125 -17.62890625 5.8515625 C-18.41136719 5.90054688 -19.19382812 5.94953125 -20 6 C-20 5.34 -20 4.68 -20 4 C-22.475 3.01 -22.475 3.01 -25 2 C-25 1.67 -25 1.34 -25 1 C-21.58340864 0.83176554 -18.16671582 0.66568609 -14.75 0.5 C-13.78191406 0.45230469 -12.81382812 0.40460937 -11.81640625 0.35546875 C-10.41455078 0.28779297 -10.41455078 0.28779297 -8.984375 0.21875 C-8.12553711 0.17685547 -7.26669922 0.13496094 -6.38183594 0.09179688 C-4.25591553 0.00986308 -2.1274987 0 0 0 Z " fill="#24A734" transform="translate(937,698)"/>
<path d="M0 0 C0.33 0.66 0.66 1.32 1 2 C-4.62694684 8.68956166 -10.73234394 14.85070826 -16.9375 21 C-17.9175531 21.97502386 -18.8973724 22.9502828 -19.87695312 23.92578125 C-22.24902313 26.28616618 -24.6234086 28.64416905 -27 31 C-27.66 30.67 -28.32 30.34 -29 30 C-28.26362305 29.26885986 -27.52724609 28.53771973 -26.76855469 27.78442383 C-24.02265325 25.05669872 -21.28012502 22.32560304 -18.53857422 19.59350586 C-17.35426284 18.4142059 -16.16905325 17.23580721 -14.98291016 16.05834961 C-13.27266113 14.36030639 -11.56572805 12.65898841 -9.859375 10.95703125 C-9.33317566 10.43599319 -8.80697632 9.91495514 -8.26483154 9.37812805 C-5.28758133 6.40132739 -2.56407012 3.33919174 0 0 Z " fill="#25A734" transform="translate(836,508)"/>
<path d="M0 0 C0 3 0 3 -2.625 5.91796875 C-3.74249406 7.01550756 -4.86785643 8.10507895 -6 9.1875 C-6.57234375 9.74630859 -7.1446875 10.30511719 -7.734375 10.88085938 C-9.14962788 12.26073093 -10.57397155 13.63126734 -12 15 C-12.66 14.67 -13.32 14.34 -14 14 C-12.71937515 12.2925002 -11.38232443 10.62626404 -10 9 C-9.34 9 -8.68 9 -8 9 C-8 8.34 -8 7.68 -8 7 C-6.25 5.2734375 -6.25 5.2734375 -4 3.375 C-3.2575 2.74335937 -2.515 2.11171875 -1.75 1.4609375 C-1.1725 0.97882812 -0.595 0.49671875 0 0 Z " fill="#40B24D" transform="translate(968,996)"/>
<path d="M0 0 C0.66 0 1.32 0 2 0 C2 1.98 2 3.96 2 6 C-1.96 7.98 -1.96 7.98 -6 10 C-6.33 9.34 -6.66 8.68 -7 8 C-6.030625 7.608125 -5.06125 7.21625 -4.0625 6.8125 C-0.77823609 5.32405113 -0.77823609 5.32405113 -0.125 2.3125 C-0.08375 1.549375 -0.0425 0.78625 0 0 Z " fill="#26A836" transform="translate(472,748)"/>
<path d="M0 0 C1.98 0.495 1.98 0.495 4 1 C4 3.31 4 5.62 4 8 C3.01 7.34 2.02 6.68 1 6 C0.34 6.66 -0.32 7.32 -1 8 C-0.67 5.36 -0.34 2.72 0 0 Z " fill="#2AA93A" transform="translate(490,533)"/>
<path d="M0 0 C0 3 0 3 -1.96875 5.04296875 C-2.8040625 5.75066406 -3.639375 6.45835937 -4.5 7.1875 C-5.3353125 7.90292969 -6.170625 8.61835937 -7.03125 9.35546875 C-7.6809375 9.89816406 -8.330625 10.44085937 -9 11 C-9.66 10.67 -10.32 10.34 -11 10 C-3.70159453 2.51708428 -3.70159453 2.51708428 0 0 Z " fill="#28A837" transform="translate(805,540)"/>
<path d="M0 0 C2.64 0 5.28 0 8 0 C8.33 0.99 8.66 1.98 9 3 C6.03 3 3.06 3 0 3 C0 2.01 0 1.02 0 0 Z " fill="#43B350" transform="translate(593,994)"/>
</svg>
